<svg width="19" height="20" viewBox="0 0 19 20" fill="none" xmlns="http://www.w3.org/2000/svg">
<path d="M6.5 12H8.5V7H6.5V12ZM2.5 10.5C1.73333 10.1167 1.125 9.5625 0.675 8.8375C0.225 8.1125 0 7.325 0 6.475C0 5.225 0.429167 4.16667 1.2875 3.3C2.14583 2.43333 3.2 2 4.45 2C4.65 2 4.85417 2.01667 5.0625 2.05C5.27083 2.08333 5.475 2.125 5.675 2.175C6.09167 1.49167 6.63333 0.958333 7.3 0.575C7.96667 0.191667 8.7 0 9.5 0C10.3 0 11.0333 0.191667 11.7 0.575C12.3667 0.958333 12.9083 1.49167 13.325 2.175C13.525 2.125 13.725 2.08333 13.925 2.05C14.125 2.01667 14.3333 2 14.55 2C15.8 2 16.8542 2.43333 17.7125 3.3C18.5708 4.16667 19 5.225 19 6.475C19 7.325 18.775 8.1125 18.325 8.8375C17.875 9.5625 17.2667 10.1167 16.5 10.5V16H2.5V10.5ZM10.5 12H12.5V7H10.5V12ZM4.5 14H14.5V9.275L15.6 8.725C16.0333 8.50833 16.375 8.20417 16.625 7.8125C16.875 7.42083 17 6.98333 17 6.5C17 5.8 16.7625 5.20833 16.2875 4.725C15.8125 4.24167 15.2333 4 14.55 4C14.3667 4 14.2 4.01667 14.05 4.05C13.9 4.08333 13.7417 4.125 13.575 4.175L12.4 4.5L11.625 3.2C11.3917 2.81667 11.0875 2.52083 10.7125 2.3125C10.3375 2.10417 9.93333 2 9.5 2C9.06667 2 8.6625 2.10417 8.2875 2.3125C7.9125 2.52083 7.60833 2.81667 7.375 3.2L6.6 4.5L5.4 4.175C5.23333 4.14167 5.07083 4.10417 4.9125 4.0625C4.75417 4.02083 4.59167 4 4.425 4C3.74167 4 3.16667 4.24167 2.7 4.725C2.23333 5.20833 2 5.8 2 6.5C2 6.98333 2.125 7.42083 2.375 7.8125C2.625 8.20417 2.96667 8.50833 3.4 8.725L4.5 9.275V14ZM2.5 16H4.5V18H14.5V16H16.5V20H2.5V16Z" fill="white"/>
</svg>
