<svg width="12" height="12" viewBox="0 0 12 12" fill="none" xmlns="http://www.w3.org/2000/svg">
<path d="M3.5 11.6667C3.17917 11.6667 2.90451 11.5524 2.67604 11.324C2.44757 11.0955 2.33333 10.8208 2.33333 10.5C2.33333 10.1792 2.44757 9.90451 2.67604 9.67604C2.90451 9.44757 3.17917 9.33333 3.5 9.33333C3.82083 9.33333 4.09549 9.44757 4.32396 9.67604C4.55243 9.90451 4.66667 10.1792 4.66667 10.5C4.66667 10.8208 4.55243 11.0955 4.32396 11.324C4.09549 11.5524 3.82083 11.6667 3.5 11.6667ZM9.33333 11.6667C9.0125 11.6667 8.73785 11.5524 8.50937 11.324C8.2809 11.0955 8.16667 10.8208 8.16667 10.5C8.16667 10.1792 8.2809 9.90451 8.50937 9.67604C8.73785 9.44757 9.0125 9.33333 9.33333 9.33333C9.65417 9.33333 9.92882 9.44757 10.1573 9.67604C10.3858 9.90451 10.5 10.1792 10.5 10.5C10.5 10.8208 10.3858 11.0955 10.1573 11.324C9.92882 11.5524 9.65417 11.6667 9.33333 11.6667ZM3.00417 2.33333L4.40417 5.25H8.4875L10.0917 2.33333H3.00417ZM2.45 1.16667H11.0542C11.2778 1.16667 11.4479 1.26632 11.5646 1.46563C11.6813 1.66493 11.6861 1.86667 11.5792 2.07083L9.50833 5.80417C9.40139 5.99861 9.25799 6.14931 9.07812 6.25625C8.89826 6.36319 8.70139 6.41667 8.4875 6.41667H4.14167L3.5 7.58333H10.5V8.75H3.5C3.0625 8.75 2.73194 8.55799 2.50833 8.17396C2.28472 7.78993 2.275 7.40833 2.47917 7.02917L3.26667 5.6L1.16667 1.16667H0V0H1.89583L2.45 1.16667ZM4.40417 5.25H8.4875H4.40417Z" fill="#9B3F00"/>
</svg>
